<svg width="384" height="171" viewBox="0 0 384 171" fill="none" xmlns="http://www.w3.org/2000/svg">
<rect x="168" width="48" height="48" rx="24" fill="#FEF0C7"/>
<rect x="168" width="48" height="48" rx="24" stroke="#FFFAEB" stroke-width="8"/>
<path d="M202 18C202 16.9 201.1 16 200 16H184C182.9 16 182 16.9 182 18M202 18V30C202 31.1 201.1 32 200 32H184C182.9 32 182 31.1 182 30V18M202 18L192 25L182 18" stroke="#D4902A" stroke-width="2" stroke-linecap="round" stroke-linejoin="round"/>
<path d="M168.684 90V76H179.004V77.84H170.784V82.04H176.184V83.82H170.784V88.16H179.084V90H168.684ZM181.002 90V79.82H183.002V80.8C183.762 80.0133 184.716 79.62 185.862 79.62C186.556 79.62 187.169 79.7733 187.702 80.08C188.249 80.3867 188.682 80.8 189.002 81.32C189.429 80.76 189.929 80.34 190.502 80.06C191.076 79.7667 191.722 79.62 192.442 79.62C193.202 79.62 193.862 79.7867 194.422 80.12C194.996 80.4533 195.442 80.92 195.762 81.52C196.096 82.12 196.262 82.8133 196.262 83.6V90H194.262V83.94C194.262 83.14 194.049 82.5133 193.622 82.06C193.209 81.5933 192.642 81.36 191.922 81.36C191.429 81.36 190.982 81.4733 190.582 81.7C190.182 81.9267 189.836 82.2733 189.542 82.74C189.569 82.8733 189.589 83.0133 189.602 83.16C189.616 83.3067 189.622 83.4533 189.622 83.6V90H187.642V83.94C187.642 83.14 187.429 82.5133 187.002 82.06C186.589 81.5933 186.022 81.36 185.302 81.36C184.822 81.36 184.389 81.4667 184.002 81.68C183.616 81.88 183.282 82.1867 183.002 82.6V90H181.002ZM201.781 90.18C201.048 90.18 200.401 90.0533 199.841 89.8C199.281 89.5333 198.841 89.1667 198.521 88.7C198.201 88.2333 198.041 87.6933 198.041 87.08C198.041 86.12 198.408 85.3667 199.141 84.82C199.874 84.26 200.881 83.98 202.161 83.98C203.161 83.98 204.088 84.1733 204.941 84.56V83.48C204.941 82.7467 204.728 82.2 204.301 81.84C203.888 81.48 203.274 81.3 202.461 81.3C201.994 81.3 201.508 81.3733 201.001 81.52C200.494 81.6533 199.928 81.8667 199.301 82.16L198.561 80.66C199.334 80.3 200.054 80.04 200.721 79.88C201.388 79.7067 202.061 79.62 202.741 79.62C204.061 79.62 205.081 79.9333 205.801 80.56C206.534 81.1867 206.901 82.08 206.901 83.24V90H204.941V89.12C204.488 89.48 204.001 89.7467 203.481 89.92C202.961 90.0933 202.394 90.18 201.781 90.18ZM199.961 87.04C199.961 87.5333 200.168 87.9333 200.581 88.24C201.008 88.5333 201.561 88.68 202.241 88.68C202.774 88.68 203.261 88.6067 203.701 88.46C204.154 88.3 204.568 88.0533 204.941 87.72V86C204.554 85.7733 204.148 85.6133 203.721 85.52C203.308 85.4133 202.841 85.36 202.321 85.36C201.588 85.36 201.008 85.5133 200.581 85.82C200.168 86.1133 199.961 86.52 199.961 87.04ZM209.205 90V79.82H211.205V90H209.205ZM210.205 78.18C209.872 78.18 209.585 78.06 209.345 77.82C209.105 77.5667 208.985 77.2733 208.985 76.94C208.985 76.5933 209.105 76.3067 209.345 76.08C209.585 75.84 209.872 75.72 210.205 75.72C210.552 75.72 210.845 75.84 211.085 76.08C211.325 76.3067 211.445 76.5933 211.445 76.94C211.445 77.2733 211.325 77.5667 211.085 77.82C210.845 78.06 210.552 78.18 210.205 78.18ZM213.561 90V76L215.561 75.62V90H213.561Z" fill="#101828"/>
<path d="M83.9566 124.176C83.1459 124.176 82.3886 124.032 81.6846 123.744C80.9912 123.445 80.3779 123.035 79.8446 122.512C79.3219 121.979 78.9112 121.365 78.6126 120.672C78.3246 119.968 78.1806 119.211 78.1806 118.4C78.1806 117.589 78.3246 116.837 78.6126 116.144C78.9112 115.44 79.3219 114.827 79.8446 114.304C80.3779 113.771 80.9912 113.36 81.6846 113.072C82.3886 112.773 83.1459 112.624 83.9566 112.624C84.7566 112.624 85.5032 112.773 86.1966 113.072C86.9006 113.36 87.5139 113.771 88.0366 114.304C88.5699 114.827 88.9806 115.44 89.2686 116.144C89.5672 116.837 89.7166 117.589 89.7166 118.4C89.7166 119.211 89.5672 119.968 89.2686 120.672C88.9806 121.365 88.5699 121.979 88.0366 122.512C87.5139 123.035 86.9006 123.445 86.1966 123.744C85.5032 124.032 84.7566 124.176 83.9566 124.176ZM83.9566 123.04C84.5966 123.04 85.1886 122.923 85.7326 122.688C86.2766 122.453 86.7512 122.128 87.1566 121.712C87.5726 121.285 87.8926 120.789 88.1166 120.224C88.3512 119.659 88.4686 119.051 88.4686 118.4C88.4686 117.739 88.3512 117.131 88.1166 116.576C87.8926 116.011 87.5726 115.52 87.1566 115.104C86.7512 114.677 86.2766 114.347 85.7326 114.112C85.1886 113.877 84.5966 113.76 83.9566 113.76C83.3166 113.76 82.7192 113.877 82.1646 114.112C81.6206 114.347 81.1406 114.677 80.7246 115.104C80.3192 115.52 79.9992 116.011 79.7646 116.576C79.5406 117.131 79.4286 117.733 79.4286 118.384C79.4286 119.045 79.5406 119.659 79.7646 120.224C79.9992 120.789 80.3192 121.285 80.7246 121.712C81.1406 122.128 81.6206 122.453 82.1646 122.688C82.7192 122.923 83.3166 123.04 83.9566 123.04ZM94.4941 124.16C93.8861 124.16 93.3474 124.032 92.8781 123.776C92.4087 123.509 92.0407 123.147 91.7741 122.688C91.5181 122.219 91.3901 121.675 91.3901 121.056V115.984H92.5581V120.816C92.5581 121.531 92.7607 122.096 93.1661 122.512C93.5714 122.917 94.1154 123.12 94.7981 123.12C95.2781 123.12 95.7047 123.013 96.0781 122.8C96.4621 122.576 96.7714 122.267 97.0061 121.872V115.984H98.1901V124H97.0061V123.072C96.3767 123.797 95.5394 124.16 94.4941 124.16ZM100.203 124V115.984H101.387V117.12C101.633 116.704 101.942 116.384 102.315 116.16C102.699 115.925 103.137 115.808 103.627 115.808C103.905 115.808 104.155 115.845 104.379 115.92V117.008C104.241 116.955 104.102 116.917 103.963 116.896C103.825 116.875 103.686 116.864 103.547 116.864C103.057 116.864 102.625 117.008 102.251 117.296C101.889 117.573 101.601 117.979 101.387 118.512V124H100.203ZM110.324 124V116.992H108.436V115.984H110.324V114.464C110.324 113.675 110.537 113.072 110.964 112.656C111.391 112.24 112.004 112.032 112.804 112.032C113.017 112.032 113.209 112.043 113.38 112.064C113.551 112.085 113.716 112.123 113.876 112.176V113.232C113.695 113.179 113.529 113.141 113.38 113.12C113.231 113.088 113.065 113.072 112.884 113.072C112.415 113.072 112.063 113.189 111.828 113.424C111.604 113.648 111.492 114.005 111.492 114.496V115.984H113.876V116.992H111.492V124H110.324ZM115.156 124V115.984H116.34V117.12C116.586 116.704 116.895 116.384 117.268 116.16C117.652 115.925 118.09 115.808 118.58 115.808C118.858 115.808 119.108 115.845 119.332 115.92V117.008C119.194 116.955 119.055 116.917 118.916 116.896C118.778 116.875 118.639 116.864 118.5 116.864C118.01 116.864 117.578 117.008 117.204 117.296C116.842 117.573 116.554 117.979 116.34 118.512V124H115.156ZM120.688 124V115.984H121.872V124H120.688ZM121.28 114.448C121.066 114.448 120.88 114.368 120.72 114.208C120.56 114.048 120.48 113.861 120.48 113.648C120.48 113.424 120.56 113.237 120.72 113.088C120.88 112.928 121.066 112.848 121.28 112.848C121.504 112.848 121.69 112.928 121.84 113.088C122 113.237 122.08 113.424 122.08 113.648C122.08 113.861 122 114.048 121.84 114.208C121.69 114.368 121.504 114.448 121.28 114.448ZM127.651 124.144C126.883 124.144 126.184 123.963 125.555 123.6C124.936 123.227 124.44 122.725 124.067 122.096C123.704 121.467 123.523 120.763 123.523 119.984C123.523 119.216 123.699 118.523 124.051 117.904C124.403 117.275 124.877 116.779 125.475 116.416C126.072 116.043 126.739 115.856 127.475 115.856C128.189 115.856 128.829 116.043 129.395 116.416C129.971 116.779 130.424 117.275 130.755 117.904C131.096 118.523 131.267 119.216 131.267 119.984V120.352H124.691C124.755 120.875 124.92 121.344 125.187 121.76C125.464 122.176 125.821 122.507 126.259 122.752C126.696 122.987 127.176 123.104 127.699 123.104C128.115 123.104 128.52 123.04 128.915 122.912C129.309 122.784 129.64 122.603 129.907 122.368L130.643 123.152C130.195 123.483 129.725 123.733 129.235 123.904C128.755 124.064 128.227 124.144 127.651 124.144ZM124.723 119.408H130.083C130.019 118.928 129.859 118.501 129.603 118.128C129.357 117.744 129.048 117.445 128.675 117.232C128.301 117.008 127.891 116.896 127.443 116.896C126.984 116.896 126.563 117.003 126.179 117.216C125.795 117.429 125.475 117.728 125.219 118.112C124.963 118.485 124.797 118.917 124.723 119.408ZM132.922 124V115.984H134.106V116.928C134.735 116.192 135.578 115.824 136.634 115.824C137.242 115.824 137.775 115.957 138.234 116.224C138.703 116.48 139.066 116.843 139.322 117.312C139.589 117.771 139.722 118.309 139.722 118.928V124H138.554V119.168C138.554 118.453 138.351 117.893 137.946 117.488C137.551 117.072 137.007 116.864 136.314 116.864C135.834 116.864 135.407 116.971 135.034 117.184C134.661 117.397 134.351 117.701 134.106 118.096V124H132.922ZM145.367 124.128C144.621 124.128 143.938 123.947 143.319 123.584C142.711 123.211 142.226 122.715 141.863 122.096C141.511 121.467 141.335 120.763 141.335 119.984C141.335 119.205 141.511 118.507 141.863 117.888C142.226 117.269 142.711 116.779 143.319 116.416C143.938 116.043 144.626 115.856 145.383 115.856C145.853 115.856 146.306 115.936 146.743 116.096C147.181 116.245 147.581 116.469 147.943 116.768V112.8L149.127 112.528V124H147.959V123.152C147.255 123.803 146.391 124.128 145.367 124.128ZM145.479 123.088C145.981 123.088 146.445 122.992 146.871 122.8C147.309 122.597 147.666 122.32 147.943 121.968V118C147.666 117.659 147.309 117.392 146.871 117.2C146.445 116.997 145.981 116.896 145.479 116.896C144.925 116.896 144.418 117.029 143.959 117.296C143.511 117.563 143.154 117.931 142.887 118.4C142.631 118.859 142.503 119.381 142.503 119.968C142.503 120.555 142.631 121.083 142.887 121.552C143.154 122.021 143.511 122.395 143.959 122.672C144.418 122.949 144.925 123.088 145.479 123.088ZM151.141 124V112.8L152.325 112.528V124H151.141ZM154.68 127.424C154.531 127.424 154.387 127.413 154.248 127.392C154.12 127.381 154.013 127.365 153.928 127.344V126.272C154.109 126.315 154.333 126.336 154.6 126.336C155.304 126.336 155.837 125.92 156.2 125.088L156.68 123.984L153.416 115.984H154.728L157.32 122.56L160.12 115.984H161.4L157.4 125.248C157.176 125.76 156.936 126.176 156.68 126.496C156.424 126.816 156.131 127.051 155.8 127.2C155.48 127.349 155.107 127.424 154.68 127.424ZM169.09 124.16C168.396 124.16 167.863 123.995 167.49 123.664C167.116 123.333 166.93 122.853 166.93 122.224V116.992H165.202V115.984H166.93V113.952L168.098 113.648V115.984H170.514V116.992H168.098V121.92C168.098 122.347 168.194 122.656 168.386 122.848C168.578 123.029 168.892 123.12 169.33 123.12C169.554 123.12 169.751 123.104 169.922 123.072C170.103 123.04 170.295 122.987 170.498 122.912V123.952C170.295 124.027 170.066 124.08 169.81 124.112C169.564 124.144 169.324 124.16 169.09 124.16ZM175.385 124.144C174.617 124.144 173.919 123.963 173.289 123.6C172.671 123.227 172.175 122.725 171.801 122.096C171.439 121.467 171.257 120.763 171.257 119.984C171.257 119.216 171.433 118.523 171.785 117.904C172.137 117.275 172.612 116.779 173.209 116.416C173.807 116.043 174.473 115.856 175.209 115.856C175.924 115.856 176.564 116.043 177.129 116.416C177.705 116.779 178.159 117.275 178.489 117.904C178.831 118.523 179.001 119.216 179.001 119.984V120.352H172.425C172.489 120.875 172.655 121.344 172.921 121.76C173.199 122.176 173.556 122.507 173.993 122.752C174.431 122.987 174.911 123.104 175.433 123.104C175.849 123.104 176.255 123.04 176.649 122.912C177.044 122.784 177.375 122.603 177.641 122.368L178.377 123.152C177.929 123.483 177.46 123.733 176.969 123.904C176.489 124.064 175.961 124.144 175.385 124.144ZM172.457 119.408H177.817C177.753 118.928 177.593 118.501 177.337 118.128C177.092 117.744 176.783 117.445 176.409 117.232C176.036 117.008 175.625 116.896 175.177 116.896C174.719 116.896 174.297 117.003 173.913 117.216C173.529 117.429 173.209 117.728 172.953 118.112C172.697 118.485 172.532 118.917 172.457 119.408ZM183.028 124.144C182.442 124.144 181.924 124.043 181.476 123.84C181.039 123.637 180.692 123.355 180.436 122.992C180.191 122.629 180.068 122.208 180.068 121.728C180.068 120.971 180.356 120.373 180.932 119.936C181.508 119.499 182.287 119.28 183.268 119.28C184.132 119.28 184.916 119.461 185.62 119.824V118.768C185.62 118.128 185.439 117.648 185.076 117.328C184.714 116.997 184.186 116.832 183.492 116.832C183.098 116.832 182.698 116.891 182.292 117.008C181.898 117.115 181.46 117.291 180.98 117.536L180.532 116.624C181.108 116.347 181.642 116.144 182.132 116.016C182.623 115.888 183.114 115.824 183.604 115.824C184.618 115.824 185.396 116.064 185.94 116.544C186.495 117.024 186.772 117.712 186.772 118.608V124H185.62V123.216C185.258 123.525 184.858 123.76 184.42 123.92C183.994 124.069 183.53 124.144 183.028 124.144ZM181.204 121.696C181.204 122.144 181.391 122.512 181.764 122.8C182.148 123.077 182.639 123.216 183.236 123.216C183.716 123.216 184.154 123.141 184.548 122.992C184.943 122.843 185.3 122.608 185.62 122.288V120.784C185.29 120.56 184.938 120.4 184.564 120.304C184.191 120.197 183.77 120.144 183.3 120.144C182.66 120.144 182.148 120.288 181.764 120.576C181.391 120.853 181.204 121.227 181.204 121.696ZM188.75 124V115.984H189.934V116.864C190.542 116.171 191.326 115.824 192.286 115.824C192.852 115.824 193.353 115.957 193.79 116.224C194.228 116.48 194.569 116.832 194.814 117.28C195.145 116.789 195.54 116.427 195.998 116.192C196.457 115.947 196.98 115.824 197.566 115.824C198.153 115.824 198.665 115.957 199.102 116.224C199.54 116.48 199.881 116.843 200.126 117.312C200.382 117.771 200.51 118.309 200.51 118.928V124H199.342V119.168C199.342 118.453 199.156 117.893 198.782 117.488C198.409 117.072 197.902 116.864 197.262 116.864C196.825 116.864 196.425 116.976 196.062 117.2C195.7 117.413 195.39 117.739 195.134 118.176C195.156 118.293 195.172 118.416 195.182 118.544C195.204 118.661 195.214 118.789 195.214 118.928V124H194.046V119.168C194.046 118.453 193.86 117.893 193.486 117.488C193.113 117.072 192.612 116.864 191.982 116.864C191.556 116.864 191.166 116.965 190.814 117.168C190.473 117.36 190.18 117.648 189.934 118.032V124H188.75ZM205.938 124V115.984H207.122V124H205.938ZM206.53 114.448C206.316 114.448 206.13 114.368 205.97 114.208C205.81 114.048 205.73 113.861 205.73 113.648C205.73 113.424 205.81 113.237 205.97 113.088C206.13 112.928 206.316 112.848 206.53 112.848C206.754 112.848 206.94 112.928 207.09 113.088C207.25 113.237 207.33 113.424 207.33 113.648C207.33 113.861 207.25 114.048 207.09 114.208C206.94 114.368 206.754 114.448 206.53 114.448ZM211.701 124.16C211.039 124.16 210.415 124.053 209.829 123.84C209.253 123.616 208.751 123.307 208.325 122.912L209.045 122.144C209.418 122.485 209.829 122.752 210.277 122.944C210.725 123.125 211.183 123.216 211.653 123.216C212.293 123.216 212.815 123.083 213.221 122.816C213.626 122.549 213.829 122.203 213.829 121.776C213.829 121.424 213.706 121.152 213.461 120.96C213.226 120.757 212.853 120.619 212.341 120.544L210.949 120.352C210.149 120.235 209.551 119.995 209.157 119.632C208.773 119.269 208.581 118.779 208.581 118.16C208.581 117.712 208.709 117.312 208.965 116.96C209.221 116.608 209.573 116.331 210.021 116.128C210.479 115.925 211.002 115.824 211.589 115.824C212.175 115.824 212.725 115.909 213.237 116.08C213.749 116.251 214.25 116.517 214.741 116.88L214.117 117.68C213.669 117.371 213.231 117.147 212.805 117.008C212.389 116.859 211.962 116.784 211.525 116.784C210.97 116.784 210.522 116.907 210.181 117.152C209.839 117.397 209.669 117.717 209.669 118.112C209.669 118.475 209.786 118.752 210.021 118.944C210.255 119.125 210.634 119.253 211.157 119.328L212.549 119.52C213.349 119.627 213.946 119.861 214.341 120.224C214.746 120.587 214.949 121.083 214.949 121.712C214.949 122.171 214.805 122.587 214.517 122.96C214.229 123.333 213.839 123.627 213.349 123.84C212.869 124.053 212.319 124.16 211.701 124.16ZM219.719 124V112.8L220.903 112.528V116.928C221.532 116.192 222.375 115.824 223.431 115.824C224.039 115.824 224.572 115.957 225.031 116.224C225.5 116.48 225.863 116.843 226.119 117.312C226.386 117.771 226.519 118.309 226.519 118.928V124H225.351V119.168C225.351 118.453 225.148 117.893 224.743 117.488C224.348 117.072 223.804 116.864 223.111 116.864C222.631 116.864 222.204 116.971 221.831 117.184C221.458 117.397 221.148 117.701 220.903 118.096V124H219.719ZM232.26 124.144C231.492 124.144 230.794 123.963 230.164 123.6C229.546 123.227 229.05 122.725 228.676 122.096C228.314 121.467 228.132 120.763 228.132 119.984C228.132 119.216 228.308 118.523 228.66 117.904C229.012 117.275 229.487 116.779 230.084 116.416C230.682 116.043 231.348 115.856 232.084 115.856C232.799 115.856 233.439 116.043 234.004 116.416C234.58 116.779 235.034 117.275 235.364 117.904C235.706 118.523 235.876 119.216 235.876 119.984V120.352H229.3C229.364 120.875 229.53 121.344 229.796 121.76C230.074 122.176 230.431 122.507 230.868 122.752C231.306 122.987 231.786 123.104 232.308 123.104C232.724 123.104 233.13 123.04 233.524 122.912C233.919 122.784 234.25 122.603 234.516 122.368L235.252 123.152C234.804 123.483 234.335 123.733 233.844 123.904C233.364 124.064 232.836 124.144 232.26 124.144ZM229.332 119.408H234.692C234.628 118.928 234.468 118.501 234.212 118.128C233.967 117.744 233.658 117.445 233.284 117.232C232.911 117.008 232.5 116.896 232.052 116.896C231.594 116.896 231.172 117.003 230.788 117.216C230.404 117.429 230.084 117.728 229.828 118.112C229.572 118.485 229.407 118.917 229.332 119.408ZM237.531 124V115.984H238.715V117.12C238.961 116.704 239.27 116.384 239.643 116.16C240.027 115.925 240.465 115.808 240.955 115.808C241.233 115.808 241.483 115.845 241.707 115.92V117.008C241.569 116.955 241.43 116.917 241.291 116.896C241.153 116.875 241.014 116.864 240.875 116.864C240.385 116.864 239.953 117.008 239.579 117.296C239.217 117.573 238.929 117.979 238.715 118.512V124H237.531ZM246.26 124.144C245.492 124.144 244.794 123.963 244.164 123.6C243.546 123.227 243.05 122.725 242.676 122.096C242.314 121.467 242.132 120.763 242.132 119.984C242.132 119.216 242.308 118.523 242.66 117.904C243.012 117.275 243.487 116.779 244.084 116.416C244.682 116.043 245.348 115.856 246.084 115.856C246.799 115.856 247.439 116.043 248.004 116.416C248.58 116.779 249.034 117.275 249.364 117.904C249.706 118.523 249.876 119.216 249.876 119.984V120.352H243.3C243.364 120.875 243.53 121.344 243.796 121.76C244.074 122.176 244.431 122.507 244.868 122.752C245.306 122.987 245.786 123.104 246.308 123.104C246.724 123.104 247.13 123.04 247.524 122.912C247.919 122.784 248.25 122.603 248.516 122.368L249.252 123.152C248.804 123.483 248.335 123.733 247.844 123.904C247.364 124.064 246.836 124.144 246.26 124.144ZM243.332 119.408H248.692C248.628 118.928 248.468 118.501 248.212 118.128C247.967 117.744 247.658 117.445 247.284 117.232C246.911 117.008 246.5 116.896 246.052 116.896C245.594 116.896 245.172 117.003 244.788 117.216C244.404 117.429 244.084 117.728 243.828 118.112C243.572 118.485 243.407 118.917 243.332 119.408ZM258.121 124.16C257.428 124.16 256.894 123.995 256.521 123.664C256.148 123.333 255.961 122.853 255.961 122.224V116.992H254.233V115.984H255.961V113.952L257.129 113.648V115.984H259.545V116.992H257.129V121.92C257.129 122.347 257.225 122.656 257.417 122.848C257.609 123.029 257.924 123.12 258.361 123.12C258.585 123.12 258.782 123.104 258.953 123.072C259.134 123.04 259.326 122.987 259.529 122.912V123.952C259.326 124.027 259.097 124.08 258.841 124.112C258.596 124.144 258.356 124.16 258.121 124.16ZM264.384 124.16C263.627 124.16 262.934 123.979 262.304 123.616C261.686 123.243 261.195 122.741 260.832 122.112C260.47 121.483 260.288 120.779 260.288 120C260.288 119.221 260.47 118.517 260.832 117.888C261.195 117.259 261.686 116.763 262.304 116.4C262.934 116.027 263.627 115.84 264.384 115.84C265.152 115.84 265.846 116.027 266.464 116.4C267.083 116.763 267.574 117.259 267.936 117.888C268.299 118.517 268.48 119.221 268.48 120C268.48 120.779 268.299 121.483 267.936 122.112C267.574 122.741 267.083 123.243 266.464 123.616C265.846 123.979 265.152 124.16 264.384 124.16ZM264.384 123.104C264.928 123.104 265.419 122.965 265.856 122.688C266.304 122.411 266.656 122.037 266.912 121.568C267.179 121.099 267.312 120.576 267.312 120C267.312 119.413 267.179 118.891 266.912 118.432C266.656 117.963 266.304 117.589 265.856 117.312C265.419 117.035 264.928 116.896 264.384 116.896C263.84 116.896 263.344 117.035 262.896 117.312C262.459 117.589 262.107 117.963 261.84 118.432C261.584 118.891 261.456 119.413 261.456 120C261.456 120.576 261.584 121.099 261.84 121.568C262.107 122.037 262.459 122.411 262.896 122.688C263.344 122.965 263.84 123.104 264.384 123.104ZM273.563 124V112.8L274.747 112.528V116.928C275.376 116.192 276.219 115.824 277.275 115.824C277.883 115.824 278.416 115.957 278.875 116.224C279.344 116.48 279.707 116.843 279.963 117.312C280.229 117.771 280.363 118.309 280.363 118.928V124H279.195V119.168C279.195 118.453 278.992 117.893 278.587 117.488C278.192 117.072 277.648 116.864 276.955 116.864C276.475 116.864 276.048 116.971 275.675 117.184C275.301 117.397 274.992 117.701 274.747 118.096V124H273.563ZM286.104 124.144C285.336 124.144 284.637 123.963 284.008 123.6C283.389 123.227 282.893 122.725 282.52 122.096C282.157 121.467 281.976 120.763 281.976 119.984C281.976 119.216 282.152 118.523 282.504 117.904C282.856 117.275 283.331 116.779 283.928 116.416C284.525 116.043 285.192 115.856 285.928 115.856C286.643 115.856 287.283 116.043 287.848 116.416C288.424 116.779 288.877 117.275 289.208 117.904C289.549 118.523 289.72 119.216 289.72 119.984V120.352H283.144C283.208 120.875 283.373 121.344 283.64 121.76C283.917 122.176 284.275 122.507 284.712 122.752C285.149 122.987 285.629 123.104 286.152 123.104C286.568 123.104 286.973 123.04 287.368 122.912C287.763 122.784 288.093 122.603 288.36 122.368L289.096 123.152C288.648 123.483 288.179 123.733 287.688 123.904C287.208 124.064 286.68 124.144 286.104 124.144ZM283.176 119.408H288.536C288.472 118.928 288.312 118.501 288.056 118.128C287.811 117.744 287.501 117.445 287.128 117.232C286.755 117.008 286.344 116.896 285.896 116.896C285.437 116.896 285.016 117.003 284.632 117.216C284.248 117.429 283.928 117.728 283.672 118.112C283.416 118.485 283.251 118.917 283.176 119.408ZM291.375 124V112.8L292.559 112.528V124H291.375ZM294.578 127.264V115.984H295.746V116.848C296.44 116.187 297.304 115.856 298.338 115.856C299.096 115.856 299.778 116.043 300.386 116.416C300.994 116.779 301.474 117.269 301.826 117.888C302.189 118.507 302.37 119.205 302.37 119.984C302.37 120.763 302.189 121.467 301.826 122.096C301.474 122.715 300.994 123.211 300.386 123.584C299.778 123.947 299.09 124.128 298.322 124.128C297.853 124.128 297.4 124.048 296.962 123.888C296.525 123.728 296.125 123.499 295.762 123.2V127.264H294.578ZM298.226 123.088C298.792 123.088 299.298 122.955 299.746 122.688C300.194 122.411 300.546 122.043 300.802 121.584C301.069 121.115 301.202 120.587 301.202 120C301.202 119.413 301.069 118.885 300.802 118.416C300.546 117.947 300.194 117.579 299.746 117.312C299.298 117.035 298.792 116.896 298.226 116.896C297.725 116.896 297.256 116.997 296.818 117.2C296.392 117.392 296.04 117.664 295.762 118.016V121.984C296.04 122.325 296.397 122.597 296.834 122.8C297.272 122.992 297.736 123.088 298.226 123.088ZM304.523 124.096C304.299 124.096 304.107 124.016 303.947 123.856C303.787 123.696 303.707 123.504 303.707 123.28C303.707 123.056 303.787 122.864 303.947 122.704C304.107 122.544 304.299 122.464 304.523 122.464C304.747 122.464 304.939 122.544 305.099 122.704C305.259 122.864 305.339 123.056 305.339 123.28C305.339 123.504 305.259 123.696 305.099 123.856C304.939 124.016 304.747 124.096 304.523 124.096Z" fill="#667085"/>
<path d="M105.625 166V154.8L106.809 154.528V158.928C107.439 158.192 108.281 157.824 109.337 157.824C109.945 157.824 110.479 157.957 110.937 158.224C111.407 158.48 111.769 158.843 112.025 159.312C112.292 159.771 112.425 160.309 112.425 160.928V166H111.257V161.168C111.257 160.453 111.055 159.893 110.649 159.488C110.255 159.072 109.711 158.864 109.017 158.864C108.537 158.864 108.111 158.971 107.737 159.184C107.364 159.397 107.055 159.701 106.809 160.096V166H105.625ZM118.166 166.144C117.398 166.144 116.7 165.963 116.07 165.6C115.452 165.227 114.956 164.725 114.582 164.096C114.22 163.467 114.038 162.763 114.038 161.984C114.038 161.216 114.214 160.523 114.566 159.904C114.918 159.275 115.393 158.779 115.99 158.416C116.588 158.043 117.254 157.856 117.99 157.856C118.705 157.856 119.345 158.043 119.91 158.416C120.486 158.779 120.94 159.275 121.27 159.904C121.612 160.523 121.782 161.216 121.782 161.984V162.352H115.206C115.27 162.875 115.436 163.344 115.702 163.76C115.98 164.176 116.337 164.507 116.774 164.752C117.212 164.987 117.692 165.104 118.214 165.104C118.63 165.104 119.036 165.04 119.43 164.912C119.825 164.784 120.156 164.603 120.422 164.368L121.158 165.152C120.71 165.483 120.241 165.733 119.75 165.904C119.27 166.064 118.742 166.144 118.166 166.144ZM115.238 161.408H120.598C120.534 160.928 120.374 160.501 120.118 160.128C119.873 159.744 119.564 159.445 119.19 159.232C118.817 159.008 118.406 158.896 117.958 158.896C117.5 158.896 117.078 159.003 116.694 159.216C116.31 159.429 115.99 159.728 115.734 160.112C115.478 160.485 115.313 160.917 115.238 161.408ZM123.438 166V154.8L124.622 154.528V166H123.438ZM126.641 166V154.8L127.825 154.528V166H126.641ZM133.572 166.16C132.815 166.16 132.121 165.979 131.492 165.616C130.873 165.243 130.383 164.741 130.02 164.112C129.657 163.483 129.476 162.779 129.476 162C129.476 161.221 129.657 160.517 130.02 159.888C130.383 159.259 130.873 158.763 131.492 158.4C132.121 158.027 132.815 157.84 133.572 157.84C134.34 157.84 135.033 158.027 135.652 158.4C136.271 158.763 136.761 159.259 137.124 159.888C137.487 160.517 137.668 161.221 137.668 162C137.668 162.779 137.487 163.483 137.124 164.112C136.761 164.741 136.271 165.243 135.652 165.616C135.033 165.979 134.34 166.16 133.572 166.16ZM133.572 165.104C134.116 165.104 134.607 164.965 135.044 164.688C135.492 164.411 135.844 164.037 136.1 163.568C136.367 163.099 136.5 162.576 136.5 162C136.5 161.413 136.367 160.891 136.1 160.432C135.844 159.963 135.492 159.589 135.044 159.312C134.607 159.035 134.116 158.896 133.572 158.896C133.028 158.896 132.532 159.035 132.084 159.312C131.647 159.589 131.295 159.963 131.028 160.432C130.772 160.891 130.644 161.413 130.644 162C130.644 162.576 130.772 163.099 131.028 163.568C131.295 164.037 131.647 164.411 132.084 164.688C132.532 164.965 133.028 165.104 133.572 165.104ZM144.753 168.304C143.931 168.304 143.169 168.16 142.465 167.872C141.771 167.595 141.163 167.2 140.641 166.688C140.129 166.187 139.729 165.595 139.441 164.912C139.153 164.229 139.009 163.488 139.009 162.688C139.009 161.845 139.153 161.067 139.441 160.352C139.729 159.637 140.129 159.013 140.641 158.48C141.153 157.947 141.755 157.531 142.449 157.232C143.142 156.933 143.894 156.784 144.705 156.784C145.462 156.784 146.161 156.912 146.801 157.168C147.451 157.413 148.017 157.76 148.497 158.208C148.977 158.645 149.35 159.163 149.617 159.76C149.894 160.357 150.033 161.003 150.033 161.696C150.033 162.347 149.91 162.933 149.665 163.456C149.419 163.968 149.083 164.373 148.657 164.672C148.23 164.971 147.745 165.12 147.201 165.12C146.507 165.12 146.011 164.901 145.713 164.464C145.446 164.699 145.169 164.88 144.881 165.008C144.593 165.125 144.305 165.184 144.017 165.184C143.579 165.184 143.185 165.077 142.833 164.864C142.491 164.651 142.219 164.363 142.017 164C141.825 163.637 141.729 163.227 141.729 162.768C141.729 162.245 141.846 161.771 142.081 161.344C142.326 160.917 142.651 160.576 143.057 160.32C143.473 160.064 143.931 159.936 144.433 159.936C145.094 159.936 145.633 160.144 146.049 160.56L146.129 160.144H147.025L146.401 163.216C146.326 163.6 146.363 163.899 146.513 164.112C146.673 164.315 146.934 164.416 147.297 164.416C147.67 164.416 148.006 164.299 148.305 164.064C148.603 163.829 148.838 163.509 149.009 163.104C149.179 162.688 149.265 162.229 149.265 161.728C149.265 160.917 149.062 160.192 148.657 159.552C148.251 158.912 147.702 158.411 147.009 158.048C146.326 157.675 145.547 157.488 144.673 157.488C143.99 157.488 143.35 157.621 142.753 157.888C142.166 158.144 141.649 158.507 141.201 158.976C140.753 159.445 140.406 159.995 140.161 160.624C139.915 161.253 139.793 161.931 139.793 162.656C139.793 163.605 140.006 164.453 140.433 165.2C140.87 165.936 141.467 166.517 142.225 166.944C142.982 167.371 143.841 167.584 144.801 167.584C145.803 167.584 146.71 167.365 147.521 166.928L147.809 167.584C147.35 167.819 146.859 167.995 146.337 168.112C145.825 168.24 145.297 168.304 144.753 168.304ZM144.209 164.432C144.699 164.432 145.131 164.245 145.505 163.872C145.494 163.755 145.489 163.637 145.489 163.52C145.489 163.403 145.505 163.275 145.537 163.136L145.873 161.44C145.723 161.205 145.521 161.024 145.265 160.896C145.009 160.768 144.726 160.704 144.417 160.704C144.086 160.704 143.782 160.795 143.505 160.976C143.238 161.157 143.019 161.403 142.849 161.712C142.689 162.011 142.609 162.341 142.609 162.704C142.609 163.216 142.758 163.632 143.057 163.952C143.355 164.272 143.739 164.432 144.209 164.432ZM151.735 166V157.984H152.919V158.928C153.548 158.192 154.391 157.824 155.447 157.824C156.055 157.824 156.588 157.957 157.047 158.224C157.516 158.48 157.879 158.843 158.135 159.312C158.401 159.771 158.535 160.309 158.535 160.928V166H157.367V161.168C157.367 160.453 157.164 159.893 156.759 159.488C156.364 159.072 155.82 158.864 155.127 158.864C154.647 158.864 154.22 158.971 153.847 159.184C153.473 159.397 153.164 159.701 152.919 160.096V166H151.735ZM163.044 166.144C162.457 166.144 161.94 166.043 161.492 165.84C161.054 165.637 160.708 165.355 160.452 164.992C160.206 164.629 160.084 164.208 160.084 163.728C160.084 162.971 160.372 162.373 160.948 161.936C161.524 161.499 162.302 161.28 163.284 161.28C164.148 161.28 164.932 161.461 165.636 161.824V160.768C165.636 160.128 165.454 159.648 165.092 159.328C164.729 158.997 164.201 158.832 163.508 158.832C163.113 158.832 162.713 158.891 162.308 159.008C161.913 159.115 161.476 159.291 160.996 159.536L160.548 158.624C161.124 158.347 161.657 158.144 162.148 158.016C162.638 157.888 163.129 157.824 163.62 157.824C164.633 157.824 165.412 158.064 165.956 158.544C166.51 159.024 166.788 159.712 166.788 160.608V166H165.636V165.216C165.273 165.525 164.873 165.76 164.436 165.92C164.009 166.069 163.545 166.144 163.044 166.144ZM161.22 163.696C161.22 164.144 161.406 164.512 161.78 164.8C162.164 165.077 162.654 165.216 163.252 165.216C163.732 165.216 164.169 165.141 164.564 164.992C164.958 164.843 165.316 164.608 165.636 164.288V162.784C165.305 162.56 164.953 162.4 164.58 162.304C164.206 162.197 163.785 162.144 163.316 162.144C162.676 162.144 162.164 162.288 161.78 162.576C161.406 162.853 161.22 163.227 161.22 163.696ZM168.766 166V154.8L169.95 154.528V161.6L174.142 157.984H175.582L171.182 161.792L175.79 166H174.174L169.95 162.16V166H168.766ZM179.51 166.16C178.902 166.16 178.363 166.032 177.894 165.776C177.424 165.509 177.056 165.147 176.79 164.688C176.534 164.219 176.406 163.675 176.406 163.056V157.984H177.574V162.816C177.574 163.531 177.776 164.096 178.182 164.512C178.587 164.917 179.131 165.12 179.814 165.12C180.294 165.12 180.72 165.013 181.094 164.8C181.478 164.576 181.787 164.267 182.022 163.872V157.984H183.206V166H182.022V165.072C181.392 165.797 180.555 166.16 179.51 166.16ZM185.219 166V157.984H186.403V159.12C186.648 158.704 186.958 158.384 187.331 158.16C187.715 157.925 188.152 157.808 188.643 157.808C188.92 157.808 189.171 157.845 189.395 157.92V159.008C189.256 158.955 189.118 158.917 188.979 158.896C188.84 158.875 188.702 158.864 188.563 158.864C188.072 158.864 187.64 159.008 187.267 159.296C186.904 159.573 186.616 159.979 186.403 160.512V166H185.219ZM192.872 166.144C192.285 166.144 191.768 166.043 191.32 165.84C190.883 165.637 190.536 165.355 190.28 164.992C190.035 164.629 189.912 164.208 189.912 163.728C189.912 162.971 190.2 162.373 190.776 161.936C191.352 161.499 192.131 161.28 193.112 161.28C193.976 161.28 194.76 161.461 195.464 161.824V160.768C195.464 160.128 195.283 159.648 194.92 159.328C194.557 158.997 194.029 158.832 193.336 158.832C192.941 158.832 192.541 158.891 192.136 159.008C191.741 159.115 191.304 159.291 190.824 159.536L190.376 158.624C190.952 158.347 191.485 158.144 191.976 158.016C192.467 157.888 192.957 157.824 193.448 157.824C194.461 157.824 195.24 158.064 195.784 158.544C196.339 159.024 196.616 159.712 196.616 160.608V166H195.464V165.216C195.101 165.525 194.701 165.76 194.264 165.92C193.837 166.069 193.373 166.144 192.872 166.144ZM191.048 163.696C191.048 164.144 191.235 164.512 191.608 164.8C191.992 165.077 192.483 165.216 193.08 165.216C193.56 165.216 193.997 165.141 194.392 164.992C194.787 164.843 195.144 164.608 195.464 164.288V162.784C195.133 162.56 194.781 162.4 194.408 162.304C194.035 162.197 193.613 162.144 193.144 162.144C192.504 162.144 191.992 162.288 191.608 162.576C191.235 162.853 191.048 163.227 191.048 163.696ZM198.594 166V157.984H199.778V158.864C200.386 158.171 201.17 157.824 202.13 157.824C202.695 157.824 203.197 157.957 203.634 158.224C204.071 158.48 204.413 158.832 204.658 159.28C204.989 158.789 205.383 158.427 205.842 158.192C206.301 157.947 206.823 157.824 207.41 157.824C207.997 157.824 208.509 157.957 208.946 158.224C209.383 158.48 209.725 158.843 209.97 159.312C210.226 159.771 210.354 160.309 210.354 160.928V166H209.186V161.168C209.186 160.453 208.999 159.893 208.626 159.488C208.253 159.072 207.746 158.864 207.106 158.864C206.669 158.864 206.269 158.976 205.906 159.2C205.543 159.413 205.234 159.739 204.978 160.176C204.999 160.293 205.015 160.416 205.026 160.544C205.047 160.661 205.058 160.789 205.058 160.928V166H203.89V161.168C203.89 160.453 203.703 159.893 203.33 159.488C202.957 159.072 202.455 158.864 201.826 158.864C201.399 158.864 201.01 158.965 200.658 159.168C200.317 159.36 200.023 159.648 199.778 160.032V166H198.594ZM212.344 166V157.984H213.528V166H212.344ZM212.936 156.448C212.723 156.448 212.536 156.368 212.376 156.208C212.216 156.048 212.136 155.861 212.136 155.648C212.136 155.424 212.216 155.237 212.376 155.088C212.536 154.928 212.723 154.848 212.936 154.848C213.16 154.848 213.347 154.928 213.496 155.088C213.656 155.237 213.736 155.424 213.736 155.648C213.736 155.861 213.656 156.048 213.496 156.208C213.347 156.368 213.16 156.448 212.936 156.448ZM215.547 166V157.984H216.731V158.928C217.36 158.192 218.203 157.824 219.259 157.824C219.867 157.824 220.4 157.957 220.859 158.224C221.328 158.48 221.691 158.843 221.947 159.312C222.214 159.771 222.347 160.309 222.347 160.928V166H221.179V161.168C221.179 160.453 220.976 159.893 220.571 159.488C220.176 159.072 219.632 158.864 218.939 158.864C218.459 158.864 218.032 158.971 217.659 159.184C217.286 159.397 216.976 159.701 216.731 160.096V166H215.547ZM224.328 166V157.984H225.512V166H224.328ZM224.92 156.448C224.707 156.448 224.52 156.368 224.36 156.208C224.2 156.048 224.12 155.861 224.12 155.648C224.12 155.424 224.2 155.237 224.36 155.088C224.52 154.928 224.707 154.848 224.92 154.848C225.144 154.848 225.331 154.928 225.48 155.088C225.64 155.237 225.72 155.424 225.72 155.648C225.72 155.861 225.64 156.048 225.48 156.208C225.331 156.368 225.144 156.448 224.92 156.448ZM227.531 166V157.984H228.715V158.928C229.345 158.192 230.187 157.824 231.243 157.824C231.851 157.824 232.385 157.957 232.843 158.224C233.313 158.48 233.675 158.843 233.931 159.312C234.198 159.771 234.331 160.309 234.331 160.928V166H233.163V161.168C233.163 160.453 232.961 159.893 232.555 159.488C232.161 159.072 231.617 158.864 230.923 158.864C230.443 158.864 230.017 158.971 229.643 159.184C229.27 159.397 228.961 159.701 228.715 160.096V166H227.531ZM240.217 169.424C239.662 169.424 239.113 169.349 238.569 169.2C238.025 169.061 237.529 168.859 237.081 168.592L237.593 167.664C238.073 167.92 238.515 168.107 238.921 168.224C239.337 168.341 239.753 168.4 240.169 168.4C240.926 168.4 241.502 168.219 241.897 167.856C242.291 167.493 242.489 166.96 242.489 166.256V165.136C241.753 165.755 240.905 166.064 239.945 166.064C239.209 166.064 238.537 165.883 237.929 165.52C237.321 165.157 236.835 164.667 236.473 164.048C236.121 163.419 235.945 162.72 235.945 161.952C235.945 161.184 236.121 160.491 236.473 159.872C236.835 159.243 237.321 158.747 237.929 158.384C238.537 158.021 239.219 157.84 239.977 157.84C240.435 157.84 240.878 157.92 241.305 158.08C241.742 158.24 242.142 158.475 242.505 158.784V157.984H243.673V166.24C243.673 167.264 243.374 168.048 242.777 168.592C242.179 169.147 241.326 169.424 240.217 169.424ZM240.041 165.024C240.553 165.024 241.022 164.928 241.449 164.736C241.875 164.544 242.222 164.272 242.489 163.92V159.984C242.222 159.643 241.87 159.376 241.433 159.184C241.006 158.992 240.542 158.896 240.041 158.896C239.486 158.896 238.985 159.029 238.537 159.296C238.099 159.563 237.753 159.931 237.497 160.4C237.241 160.859 237.113 161.376 237.113 161.952C237.113 162.528 237.241 163.051 237.497 163.52C237.763 163.979 238.115 164.347 238.553 164.624C239.001 164.891 239.497 165.024 240.041 165.024ZM246.68 166.096C246.456 166.096 246.264 166.016 246.104 165.856C245.944 165.696 245.864 165.504 245.864 165.28C245.864 165.056 245.944 164.864 246.104 164.704C246.264 164.544 246.456 164.464 246.68 164.464C246.904 164.464 247.096 164.544 247.256 164.704C247.416 164.864 247.496 165.056 247.496 165.28C247.496 165.504 247.416 165.696 247.256 165.856C247.096 166.016 246.904 166.096 246.68 166.096ZM252.915 166.144C252.158 166.144 251.47 165.963 250.851 165.6C250.233 165.227 249.742 164.725 249.379 164.096C249.017 163.467 248.835 162.763 248.835 161.984C248.835 161.205 249.017 160.507 249.379 159.888C249.742 159.259 250.233 158.757 250.851 158.384C251.47 158.011 252.158 157.824 252.915 157.824C253.502 157.824 254.067 157.936 254.611 158.16C255.155 158.373 255.635 158.683 256.051 159.088L255.299 159.952C254.979 159.611 254.611 159.355 254.195 159.184C253.79 159.003 253.369 158.912 252.931 158.912C252.387 158.912 251.891 159.051 251.443 159.328C251.006 159.595 250.654 159.963 250.387 160.432C250.131 160.891 250.003 161.408 250.003 161.984C250.003 162.56 250.131 163.083 250.387 163.552C250.654 164.021 251.011 164.395 251.459 164.672C251.907 164.939 252.403 165.072 252.947 165.072C253.385 165.072 253.795 164.987 254.179 164.816C254.574 164.645 254.942 164.395 255.283 164.064L256.019 164.864C255.593 165.269 255.113 165.584 254.579 165.808C254.046 166.032 253.491 166.144 252.915 166.144ZM260.9 166.16C260.143 166.16 259.449 165.979 258.82 165.616C258.201 165.243 257.711 164.741 257.348 164.112C256.985 163.483 256.804 162.779 256.804 162C256.804 161.221 256.985 160.517 257.348 159.888C257.711 159.259 258.201 158.763 258.82 158.4C259.449 158.027 260.143 157.84 260.9 157.84C261.668 157.84 262.361 158.027 262.98 158.4C263.599 158.763 264.089 159.259 264.452 159.888C264.815 160.517 264.996 161.221 264.996 162C264.996 162.779 264.815 163.483 264.452 164.112C264.089 164.741 263.599 165.243 262.98 165.616C262.361 165.979 261.668 166.16 260.9 166.16ZM260.9 165.104C261.444 165.104 261.935 164.965 262.372 164.688C262.82 164.411 263.172 164.037 263.428 163.568C263.695 163.099 263.828 162.576 263.828 162C263.828 161.413 263.695 160.891 263.428 160.432C263.172 159.963 262.82 159.589 262.372 159.312C261.935 159.035 261.444 158.896 260.9 158.896C260.356 158.896 259.86 159.035 259.412 159.312C258.975 159.589 258.623 159.963 258.356 160.432C258.1 160.891 257.972 161.413 257.972 162C257.972 162.576 258.1 163.099 258.356 163.568C258.623 164.037 258.975 164.411 259.412 164.688C259.86 164.965 260.356 165.104 260.9 165.104ZM266.641 166V157.984H267.825V158.864C268.433 158.171 269.217 157.824 270.177 157.824C270.742 157.824 271.243 157.957 271.681 158.224C272.118 158.48 272.459 158.832 272.705 159.28C273.035 158.789 273.43 158.427 273.889 158.192C274.347 157.947 274.87 157.824 275.457 157.824C276.043 157.824 276.555 157.957 276.993 158.224C277.43 158.48 277.771 158.843 278.017 159.312C278.273 159.771 278.401 160.309 278.401 160.928V166H277.233V161.168C277.233 160.453 277.046 159.893 276.673 159.488C276.299 159.072 275.793 158.864 275.153 158.864C274.715 158.864 274.315 158.976 273.953 159.2C273.59 159.413 273.281 159.739 273.025 160.176C273.046 160.293 273.062 160.416 273.073 160.544C273.094 160.661 273.105 160.789 273.105 160.928V166H271.937V161.168C271.937 160.453 271.75 159.893 271.377 159.488C271.003 159.072 270.502 158.864 269.873 158.864C269.446 158.864 269.057 158.965 268.705 159.168C268.363 159.36 268.07 159.648 267.825 160.032V166H266.641Z" fill="#D4902A"/>
</svg>
