<svg width="24" height="32" viewBox="0 0 24 32" fill="none" xmlns="http://www.w3.org/2000/svg">
<g clip-path="url(#clip0_123_100916)">
<path d="M12 28C18.6274 28 24 22.6274 24 16C24 9.37258 18.6274 4 12 4C5.37258 4 0 9.37258 0 16C0 22.6274 5.37258 28 12 28Z" fill="#F0F0F0"/>
<path d="M-0.000411987 16.0001C-0.000411987 21.1598 3.25609 25.5582 7.8257 27.2538V4.74658C3.25609 6.44205 -0.000411987 10.8406 -0.000411987 16.0001Z" fill="#6DA544"/>
<path d="M23.9999 16.0001C23.9999 10.8406 20.7434 6.44205 16.1738 4.74658V27.2538C20.7434 25.5582 23.9999 21.1598 23.9999 16.0001Z" fill="#6DA544"/>
</g>
<defs>
<clipPath id="clip0_123_100916">
<rect width="24" height="24" fill="white" transform="translate(0 4)"/>
</clipPath>
</defs>
</svg>
