<svg width="57" height="56" viewBox="0 0 57 56" fill="none" xmlns="http://www.w3.org/2000/svg">
<rect x="4.33325" y="4" width="48" height="48" rx="24" fill="#FEF0C7"/>
<rect x="4.33325" y="4" width="48" height="48" rx="24" stroke="#FFFAEB" stroke-width="8"/>
<path d="M38.3332 32.92V35.92C38.3343 36.1985 38.2773 36.4742 38.1657 36.7293C38.0541 36.9845 37.8905 37.2136 37.6853 37.4019C37.48 37.5901 37.2378 37.7335 36.9739 37.8227C36.7101 37.9119 36.4306 37.9451 36.1532 37.92C33.076 37.5856 30.1202 36.5341 27.5232 34.85C25.107 33.3147 23.0585 31.2662 21.5232 28.85C19.8332 26.2412 18.7814 23.271 18.4532 20.18C18.4282 19.9035 18.4611 19.6248 18.5497 19.3616C18.6383 19.0985 18.7808 18.8567 18.968 18.6516C19.1551 18.4466 19.383 18.2827 19.637 18.1705C19.891 18.0583 20.1655 18.0003 20.4432 18H23.4432C23.9285 17.9952 24.399 18.1671 24.7669 18.4835C25.1349 18.8 25.3753 19.2394 25.4432 19.72C25.5698 20.6801 25.8046 21.6227 26.1432 22.53C26.2777 22.8879 26.3068 23.2769 26.2271 23.6509C26.1473 24.0248 25.962 24.3681 25.6932 24.64L24.4232 25.91C25.8467 28.4135 27.9196 30.4864 30.4232 31.91L31.6932 30.64C31.9651 30.3711 32.3083 30.1858 32.6823 30.1061C33.0563 30.0263 33.4453 30.0555 33.8032 30.19C34.7105 30.5286 35.6531 30.7634 36.6132 30.89C37.099 30.9585 37.5426 31.2032 37.8597 31.5775C38.1768 31.9518 38.3454 32.4296 38.3332 32.92Z" stroke="#D4902A" stroke-width="2" stroke-linecap="round" stroke-linejoin="round"/>
</svg>
