<svg width="24" height="28" viewBox="0 0 24 28" fill="none" xmlns="http://www.w3.org/2000/svg">
<g clip-path="url(#clip0_123_100915)">
<path d="M12 28C18.6274 28 24 22.6274 24 16C24 9.37258 18.6274 4 12 4C5.37258 4 0 9.37258 0 16C0 22.6274 5.37258 28 12 28Z" fill="#F0F0F0"/>
<path d="M11.4779 16.0001H23.9997C23.9997 14.917 23.8553 13.8677 23.5863 12.8696H11.4779V16.0001Z" fill="#D80027"/>
<path d="M11.4779 9.73861H22.2384C21.5038 8.53992 20.5646 7.4804 19.4695 6.60815H11.4779V9.73861Z" fill="#D80027"/>
<path d="M11.9997 28C14.8239 28 17.4197 27.0239 19.4695 25.3914H4.5299C6.57974 27.0239 9.17554 28 11.9997 28Z" fill="#D80027"/>
<path d="M1.76105 22.2601H22.2385C22.8282 21.2978 23.2856 20.2459 23.5864 19.1296H0.413162C0.713959 20.2459 1.17132 21.2978 1.76105 22.2601Z" fill="#D80027"/>
<path d="M5.55863 5.87397H6.65217L5.63498 6.61295L6.02353 7.80869L5.00639 7.0697L3.98925 7.80869L4.32487 6.7757C3.42928 7.52172 2.64431 8.39575 1.99744 9.36963H2.34783L1.70034 9.84002C1.59947 10.0083 1.50272 10.1792 1.41 10.3527L1.71919 11.3043L1.14234 10.8852C0.998953 11.189 0.867797 11.4997 0.749906 11.8168L1.09055 12.8653H2.34783L1.33064 13.6043L1.71919 14.8L0.702047 14.061L0.0927656 14.5037C0.0317812 14.9939 0 15.4932 0 16H12C12 9.37262 12 8.59131 12 4C9.62944 4 7.41961 4.68766 5.55863 5.87397ZM6.02353 14.8L5.00639 14.061L3.98925 14.8L4.3778 13.6043L3.36061 12.8653H4.61789L5.00639 11.6695L5.39489 12.8653H6.65217L5.63498 13.6043L6.02353 14.8ZM5.63498 10.1086L6.02353 11.3043L5.00639 10.5654L3.98925 11.3043L4.3778 10.1086L3.36061 9.36963H4.61789L5.00639 8.17389L5.39489 9.36963H6.65217L5.63498 10.1086ZM10.3279 14.8L9.31073 14.061L8.29359 14.8L8.68214 13.6043L7.66495 12.8653H8.92223L9.31073 11.6695L9.69923 12.8653H10.9565L9.93933 13.6043L10.3279 14.8ZM9.93933 10.1086L10.3279 11.3043L9.31073 10.5654L8.29359 11.3043L8.68214 10.1086L7.66495 9.36963H8.92223L9.31073 8.17389L9.69923 9.36963H10.9565L9.93933 10.1086ZM9.93933 6.61295L10.3279 7.80869L9.31073 7.0697L8.29359 7.80869L8.68214 6.61295L7.66495 5.87397H8.92223L9.31073 4.67823L9.69923 5.87397H10.9565L9.93933 6.61295Z" fill="#0052B4"/>
</g>
<defs>
<clipPath id="clip0_123_100915">
<rect width="24" height="24" fill="white" transform="translate(0 4)"/>
</clipPath>
</defs>
</svg>
